<svg xmlns="http://www.w3.org/2000/svg" viewBox="0 0 194 174" width="194" height="174">
  <path d="M 178.00 159.00 L 184.00 162.00 L 186.00 164.00 L 191.00 166.00 L 193.00 168.00 L 193.00 166.00 L 192.00 166.00 L 190.00 164.00 L 185.00 162.00 L 181.00 159.00 Z M 151.00 159.00 L 148.00 159.00 L 144.00 161.00 L 142.00 163.00 L 137.00 165.00 L 135.00 167.00 L 132.00 168.00 L 130.00 170.00 L 124.00 173.00 L 127.00 173.00 L 136.00 167.00 L 141.00 165.00 L 143.00 163.00 Z M 43.00 159.00 L 49.00 162.00 L 51.00 164.00 L 56.00 166.00 L 63.00 171.00 L 67.00 173.00 L 70.00 173.00 L 64.00 170.00 L 62.00 168.00 L 57.00 166.00 L 55.00 164.00 L 50.00 162.00 L 48.00 160.00 L 46.00 159.00 Z M 16.00 159.00 L 13.00 159.00 L 7.00 162.00 L 5.00 164.00 L 0.00 166.00 L 0.00 167.00 L 2.00 167.00 Z M 150.00 120.00 L 148.00 119.00 L 147.00 117.00 L 146.00 117.00 L 145.00 115.00 L 142.00 113.00 L 142.00 112.00 L 141.00 112.00 L 141.00 113.00 L 132.00 122.00 L 131.00 122.00 L 130.00 124.00 L 129.00 124.00 L 127.00 126.00 L 124.00 127.00 L 122.00 129.00 L 116.00 132.00 L 113.00 132.00 L 110.00 134.00 L 107.00 134.00 L 107.00 141.00 L 110.00 141.00 L 113.00 147.00 L 115.00 148.00 L 119.00 148.00 L 122.00 146.00 L 124.00 146.00 L 128.00 143.00 L 129.00 143.00 L 129.00 137.00 L 128.00 136.00 L 128.00 134.00 L 131.00 131.00 L 135.00 131.00 L 136.00 133.00 L 138.00 134.00 L 143.00 134.00 L 150.00 127.00 L 151.00 125.00 L 151.00 122.00 Z M 168.00 108.00 L 170.00 108.00 Z M 148.00 108.00 L 150.00 108.00 Z M 137.00 105.00 L 135.00 107.00 L 131.00 108.00 L 133.00 108.00 Z M 126.00 105.00 L 127.00 106.00 Z M 175.00 104.00 L 172.00 107.00 L 174.00 106.00 Z M 155.00 104.00 L 154.00 106.00 Z M 163.00 103.00 L 164.00 105.00 L 164.00 148.00 L 164.00 108.00 L 166.00 107.00 L 163.00 104.00 Z M 143.00 103.00 L 143.00 104.00 L 146.00 107.00 L 143.00 104.00 Z M 121.00 100.00 L 124.00 103.00 Z M 118.00 97.00 L 119.00 98.00 Z M 134.00 94.00 L 137.00 97.00 Z M 113.00 92.00 L 114.00 93.00 Z M 129.00 89.00 L 130.00 90.00 Z M 108.00 87.00 L 109.00 88.00 Z M 124.00 112.00 L 99.00 87.00 L 91.00 87.00 L 91.00 88.00 L 89.00 89.00 L 88.00 91.00 L 86.00 92.00 L 86.00 93.00 L 84.00 94.00 L 83.00 96.00 L 81.00 97.00 L 81.00 98.00 L 79.00 99.00 L 78.00 101.00 L 76.00 102.00 L 76.00 103.00 L 74.00 104.00 L 73.00 106.00 L 68.00 110.00 L 66.00 114.00 L 66.00 117.00 L 68.00 119.00 L 68.00 120.00 L 69.00 121.00 L 74.00 122.00 L 78.00 120.00 L 87.00 111.00 L 89.00 112.00 L 89.00 134.00 L 88.00 135.00 L 85.00 135.00 L 84.00 134.00 L 81.00 134.00 L 80.00 133.00 L 75.00 132.00 L 65.00 127.00 L 59.00 122.00 L 58.00 122.00 L 57.00 120.00 L 52.00 116.00 L 52.00 115.00 L 49.00 112.00 L 46.00 106.00 L 44.00 104.00 L 44.00 102.00 L 42.00 99.00 L 40.00 91.00 L 39.00 90.00 L 33.00 90.00 L 33.00 93.00 L 26.00 98.00 L 26.00 103.00 L 28.00 105.00 L 28.00 108.00 L 29.00 109.00 L 29.00 148.00 L 29.00 113.00 L 30.00 112.00 L 32.00 113.00 L 36.00 113.00 L 40.00 111.00 L 44.00 116.00 L 44.00 117.00 L 40.00 122.00 L 40.00 126.00 L 41.00 128.00 L 42.00 128.00 L 43.00 130.00 L 46.00 132.00 L 46.00 133.00 L 50.00 135.00 L 51.00 134.00 L 53.00 134.00 L 57.00 130.00 L 60.00 131.00 L 63.00 134.00 L 61.00 138.00 L 61.00 142.00 L 64.00 145.00 L 68.00 146.00 L 71.00 148.00 L 76.00 148.00 L 78.00 146.00 L 79.00 142.00 L 80.00 141.00 L 85.00 141.00 L 89.00 143.00 L 89.00 148.00 L 92.00 151.00 L 99.00 151.00 L 102.00 147.00 L 102.00 112.00 L 104.00 111.00 L 114.00 121.00 L 116.00 121.00 L 117.00 122.00 L 121.00 121.00 L 124.00 118.00 Z M 176.00 85.00 L 182.00 85.00 Z M 162.00 85.00 L 156.00 85.00 L 156.00 101.00 L 156.00 86.00 L 157.00 85.00 Z M 136.00 85.00 L 142.00 85.00 Z M 124.00 84.00 L 125.00 85.00 Z M 185.00 83.00 L 184.00 84.00 Z M 132.00 80.00 L 134.00 84.00 Z M 119.00 78.00 L 119.00 79.00 Z M 133.00 74.00 L 132.00 77.00 Z M 104.00 74.00 L 103.00 76.00 L 103.00 81.00 L 104.00 83.00 L 103.00 81.00 L 103.00 76.00 Z M 184.00 73.00 L 185.00 74.00 Z M 176.00 72.00 L 182.00 72.00 Z M 136.00 72.00 L 162.00 72.00 Z M 109.00 69.00 L 108.00 70.00 Z M 130.00 67.00 L 129.00 68.00 Z M 114.00 64.00 L 113.00 65.00 Z M 143.00 63.00 L 143.00 65.00 L 146.00 68.00 L 152.00 68.00 L 155.00 65.00 L 152.00 68.00 L 146.00 68.00 L 143.00 65.00 Z M 135.00 62.00 L 134.00 63.00 Z M 156.00 61.00 L 156.00 62.00 Z M 119.00 59.00 L 118.00 60.00 Z M 153.00 56.00 L 155.00 58.00 Z M 151.00 55.00 L 147.00 55.00 L 145.00 56.00 L 143.00 58.00 L 143.00 60.00 L 143.00 58.00 L 145.00 56.00 L 147.00 55.00 Z M 124.00 54.00 L 121.00 57.00 Z M 172.00 50.00 L 175.00 53.00 L 174.00 51.00 Z M 166.00 50.00 L 163.00 53.00 L 163.00 54.00 L 163.00 53.00 Z M 129.00 50.00 L 126.00 52.00 Z M 168.00 49.00 L 170.00 49.00 Z M 131.00 49.00 L 133.00 49.00 L 137.00 52.00 L 135.00 50.00 Z M 76.00 9.00 L 71.00 9.00 L 68.00 11.00 L 64.00 12.00 L 61.00 15.00 L 61.00 19.00 L 63.00 23.00 L 60.00 26.00 L 57.00 27.00 L 53.00 23.00 L 51.00 23.00 L 50.00 22.00 L 46.00 24.00 L 46.00 25.00 L 44.00 26.00 L 40.00 31.00 L 40.00 35.00 L 44.00 40.00 L 43.00 43.00 L 40.00 46.00 L 36.00 44.00 L 32.00 44.00 L 29.00 47.00 L 28.00 49.00 L 28.00 52.00 L 26.00 54.00 L 26.00 59.00 L 33.00 64.00 L 33.00 69.00 L 31.00 72.00 L 26.00 72.00 L 23.00 75.00 L 23.00 82.00 L 27.00 85.00 L 62.00 85.00 L 63.00 87.00 L 53.00 97.00 L 53.00 99.00 L 52.00 100.00 L 53.00 105.00 L 58.00 108.00 L 62.00 107.00 L 87.00 82.00 L 87.00 75.00 L 62.00 50.00 L 60.00 49.00 L 58.00 49.00 L 53.00 52.00 L 52.00 57.00 L 53.00 58.00 L 53.00 60.00 L 63.00 70.00 L 62.00 72.00 L 40.00 72.00 L 39.00 71.00 L 39.00 67.00 L 40.00 66.00 L 42.00 58.00 L 44.00 55.00 L 44.00 53.00 L 49.00 46.00 L 49.00 45.00 L 52.00 42.00 L 52.00 41.00 L 54.00 40.00 L 54.00 39.00 L 56.00 38.00 L 58.00 35.00 L 59.00 35.00 L 65.00 30.00 L 75.00 25.00 L 77.00 25.00 L 78.00 24.00 L 80.00 24.00 L 84.00 22.00 L 84.00 16.00 L 80.00 16.00 L 79.00 15.00 L 78.00 11.00 Z M 66.00 43.00 L 68.00 47.00 L 70.00 48.00 L 71.00 50.00 L 72.00 50.00 L 73.00 52.00 L 75.00 53.00 L 76.00 55.00 L 77.00 55.00 L 78.00 57.00 L 80.00 58.00 L 81.00 60.00 L 82.00 60.00 L 83.00 62.00 L 85.00 63.00 L 86.00 65.00 L 87.00 65.00 L 88.00 67.00 L 91.00 69.00 L 91.00 70.00 L 99.00 70.00 L 124.00 45.00 L 124.00 39.00 L 119.00 35.00 L 114.00 36.00 L 104.00 46.00 L 102.00 45.00 L 102.00 23.00 L 103.00 22.00 L 105.00 22.00 L 106.00 23.00 L 110.00 23.00 L 113.00 25.00 L 116.00 25.00 L 122.00 28.00 L 124.00 30.00 L 127.00 31.00 L 129.00 33.00 L 130.00 33.00 L 131.00 35.00 L 132.00 35.00 L 141.00 44.00 L 141.00 45.00 L 142.00 45.00 L 142.00 44.00 L 144.00 43.00 L 145.00 41.00 L 150.00 37.00 L 151.00 35.00 L 151.00 32.00 L 150.00 30.00 L 143.00 23.00 L 138.00 23.00 L 136.00 24.00 L 135.00 26.00 L 131.00 26.00 L 128.00 23.00 L 128.00 21.00 L 129.00 20.00 L 129.00 14.00 L 128.00 14.00 L 124.00 11.00 L 122.00 11.00 L 119.00 9.00 L 115.00 9.00 L 113.00 10.00 L 110.00 16.00 L 105.00 16.00 L 102.00 14.00 L 102.00 10.00 L 99.00 6.00 L 92.00 6.00 L 89.00 9.00 L 89.00 45.00 L 87.00 46.00 L 78.00 37.00 L 74.00 35.00 L 69.00 36.00 L 66.00 40.00 Z" fill="rgb(244,151,82)" fill-rule="evenodd" stroke="none"/>
  <path d="M 145.00 57.00 L 143.00 61.00 L 144.00 65.00 L 146.00 67.00 L 152.00 67.00 L 155.00 64.00 L 155.00 59.00 L 152.00 56.00 L 147.00 56.00 Z M 171.00 50.00 L 167.00 50.00 L 163.00 55.00 L 163.00 72.00 L 162.00 73.00 L 135.00 73.00 L 132.00 78.00 L 135.00 84.00 L 142.00 84.00 L 143.00 85.00 L 143.00 102.00 L 147.00 107.00 L 151.00 107.00 L 153.00 106.00 L 155.00 103.00 L 155.00 85.00 L 156.00 84.00 L 162.00 84.00 L 163.00 85.00 L 163.00 102.00 L 167.00 107.00 L 171.00 107.00 L 175.00 103.00 L 175.00 85.00 L 176.00 84.00 L 183.00 84.00 L 186.00 80.00 L 186.00 77.00 L 183.00 73.00 L 176.00 73.00 L 175.00 72.00 L 175.00 54.00 Z M 130.00 50.00 L 128.00 52.00 L 127.00 52.00 L 105.00 74.00 L 104.00 76.00 L 104.00 81.00 L 105.00 83.00 L 128.00 106.00 L 130.00 107.00 L 133.00 107.00 L 135.00 106.00 L 138.00 102.00 L 137.00 98.00 L 133.00 94.00 L 133.00 93.00 L 132.00 93.00 L 131.00 91.00 L 130.00 91.00 L 128.00 89.00 L 128.00 88.00 L 127.00 88.00 L 126.00 86.00 L 125.00 86.00 L 123.00 84.00 L 123.00 83.00 L 122.00 83.00 L 121.00 81.00 L 118.00 79.00 L 118.00 78.00 L 120.00 77.00 L 121.00 75.00 L 123.00 74.00 L 123.00 73.00 L 125.00 72.00 L 126.00 70.00 L 128.00 69.00 L 128.00 68.00 L 130.00 66.00 L 131.00 66.00 L 131.00 65.00 L 133.00 64.00 L 133.00 63.00 L 135.00 61.00 L 136.00 61.00 L 138.00 57.00 L 138.00 55.00 L 135.00 51.00 L 133.00 50.00 Z" fill="rgb(59,58,130)" fill-rule="evenodd" stroke="none"/>
</svg>
